<?xml version="1.0" encoding="utf-8"?>
<!-- Generator: Adobe Illustrator 20.1.0, SVG Export Plug-In . SVG Version: 6.00 Build 0)  -->
<svg version="1.1" xmlns="http://www.w3.org/2000/svg" xmlns:xlink="http://www.w3.org/1999/xlink" x="0px" y="0px"
	 viewBox="0 0 380 324.3" style="enable-background:new 0 0 380 324.3;" xml:space="preserve">
<style type="text/css">
	.st0{stroke:#FFFFFF;stroke-width:0.5;}
	.st1{stroke:#FFFFFF;stroke-width:0.4587;}
</style>
<g id="mayotte">
	<polygon class="st0" points="365.6,303.7 363.8,301.9 362,302.2 362.9,309.5 365.8,312.7 368.9,313.6 370.2,313.6 374.5,310.7 
		374,305.5 380,284.9 379.3,283.1 377.6,281.8 363.6,273.8 359.9,277.9 359.4,279.5 359.4,282.7 361.5,284.1 366.4,293.5 
		369.1,301.1 368.1,302.7 	"/>
</g>
<g id="réunion">
	<polygon class="st0" points="251,280.8 251,279.5 248.4,276.2 247.1,273.5 247.9,269.3 247.9,268.2 242.2,261.5 239.9,261.5 
		238.6,261 237.6,260.7 236.4,258.9 233.1,258 228.7,258.1 226.5,256.8 219.5,256.8 217.5,254.9 215.2,254.9 211.9,255.5 
		210.1,256.2 208.2,257.5 202.3,262 201.4,262.1 197.8,261.5 196.5,265.7 197.2,268.2 196.5,270.9 196,271.9 193.3,273.7 
		191.3,273.7 189.5,275.6 188.8,276.7 189.5,278.1 189.5,281.2 193.3,285.6 195.2,289.6 195.3,290.7 196.6,291.5 197.3,295.5 
		196,297.4 197.8,301.8 200.5,303.9 201.7,305.1 202.4,307.5 208.2,309.6 210.8,311.4 212,314 215.9,315.3 217.1,316.5 227.5,321.3 
		232.8,321.8 234.7,323.8 242.9,324.3 243.5,322.5 255.2,321.8 259.6,317.9 258.9,306.6 262.3,297.1 263.5,297.1 263.5,296.7 
		262.8,292.5 260.2,290.5 257.6,289.8 	"/>
</g>
<g id="martinique_1_">
	<path class="st0" d="M11.6,295.5l3.2-4.9h1.1l2.9-8l-3.6-3.6l-0.4-1.2l-3.4-2.7l-3.8-6.2v-2.5l-2.1-1.2l-0.4-4l-1.2-2.6l0.5-6.4
		v-2.8L3,248.9l1.4-7.7l4.5-5.7l0.4-1.5l7.4-5l2-2v-2.7l1.7-3.7h0.9l0.5-0.6l12.8,6.9l7.5,3l6.7,0.9l2.1,1l-0.5-0.9l5.6,2.6l6.6,7.7
		l5.5,4.1l1.1-0.5l3.3,1.3l-0.2,0.4l-1.9,0.5l-0.7,3.6l1.6-2.5l1.8-0.1l1.1,1.2l5.1,3.8l1.9,5.1l-0.6,1.3l-3.4,3.5l1.2,0.3l3.4-2.1
		l0.4-7l1.8,0l3,3.9v1.1l2,5.7l1.4,1.4v3.6l-3,2.3l-1.4,3.2l-3.4,2.1l-0.7,1.8l-1.2,0.8l-8.4,12.9l-3.4,2.6l0,3.6l-6.3,10.9v2.6
		l-5.2,5.7l-4.5,1.3l-0.6,2.6l-3.7,1.9l-3-2.4l-5.6,0.4l0.6-1.6l-1.6-2.3l-1.3-0.4l-4,3l-3.7-1.3l-4.5-0.4l0-2.1l-6.2,2.7l1,1.3
		l-5,1.2l-1.8,2.3l-12.1-3.6l0.3-2.4L0,317.2l0.3-0.4l2.1,0l1.8-3l2.6-1.4c1.4-3.5,1.9-4.6,1.9-4.6l3-4l0.6-3l0.6,0l-0.6-4.7
		L11.6,295.5z"/>
</g>
<g id="martinique">
	<polygon class="st0" points="264.6,69.5 264.6,71.4 268.1,71.9 268.1,69.5 269.6,69.5 270.2,68.8 271.1,68.8 271.1,70.9 
		272.4,72.3 271.1,72.5 271,74.4 273.2,75.4 273.2,77.5 277,81.3 273.2,82.7 272.5,84.4 270.9,84.4 266.6,82.7 267.5,81.1 267.5,80 
		266.3,81.1 264.9,78.9 261.8,82.6 259.9,82.7 256.2,88.3 256.2,89.7 258,89.7 258.2,92.1 259.5,92.9 258.9,96.6 260.6,97.2 
		261.7,99.9 264.5,99.2 265.2,99.2 265.5,97.3 270.3,94.5 272.6,96.6 273.2,95.5 274.3,94.5 274.6,96.7 276,97.1 277.9,94.5 
		278.9,94.6 278.9,97.1 280.1,97.3 280.5,96.4 286.1,99.3 290.1,97.2 290.5,97.3 292.4,99.9 293.5,101 297.3,97.2 300.1,97.2 
		300.1,98.8 298.3,100.2 298.3,101.5 296.2,101 295.8,101.9 297,103.3 294.5,107.7 297.5,112.2 300.6,111.5 302.4,108.8 
		303.3,109.5 303.5,109 302.2,105.7 303.5,105.7 304,107 304.5,107 305.1,104.9 307,103.8 307.6,99.7 308.8,99.3 308.1,98 
		309.5,96.1 308.8,93.6 308.3,92.5 307.6,92.5 307,88.8 305.9,89.3 304.8,89.2 305.8,87 307.5,87 305.6,81.1 307.3,77.6 305.3,78.9 
		304.6,79.7 303.1,73.7 301.1,73.8 297.7,69.1 299.2,68.2 299.2,67.7 294,67.2 295.2,63.3 293.2,61.9 293.6,61.5 297.1,59.6 
		297.1,58.2 295.7,58.2 295.7,58.7 291.6,58.7 288.9,60.9 287.5,58.2 286.1,57.4 287.7,55 289.4,55.2 289.4,53.2 294.6,51.8 
		294.5,50.3 294.2,50.4 292.9,51.7 291.4,48.3 290.5,48.3 290.5,49 288.1,49.7 288,48.9 289.8,46.6 288.5,46.5 288,48.3 287.4,48.2 
		286.1,46.1 286.2,43.6 286.7,42.2 287.5,41.3 289.1,40.8 291.8,42.7 292.4,44.7 296,44 296.4,43.1 295.1,42.5 296.6,41.4 
		296.5,40.2 295.2,40 296.8,38.2 300.4,39.5 300.5,39.1 299.8,38.6 299.3,36.2 296.9,35.5 294.2,38.1 292.4,37.5 292.3,38.7 
		290.1,39.3 290.1,38.7 289,38.7 285.2,41.3 284.5,43.2 282.8,43.2 282.3,39.9 275.1,31.5 275.8,30.7 275.3,29.2 274.6,29.2 
		273.4,29.8 272,27.8 268.8,24.4 268.1,23.4 266.3,24 262.5,21.8 260.3,20.5 256.5,17.4 252.5,16 250.7,14.8 248.2,14.1 240.6,16.1 
		239.5,17.3 236.7,18.7 234.7,22.5 234.3,27.5 235.5,32.4 236,33.1 238.1,34.5 239.4,37.1 242.5,39.7 243.3,41.6 241.3,48.1 
		243.9,53.3 244.5,53.9 247.3,59.7 250.2,63.5 251.8,64.9 254.9,66.9 258,70.2 	"/>
</g>
<g id="guadeloupe">
	<g>
		<path class="st1" d="M49,82.9V86c0.4,0.4,1.1,1.2,1.1,1.2l2.6-1.4l2.3-1.9l0.8,0.9l0.7-0.8l4.8-1.1l0.4-1.1l1.5-1.8l4.4-4.9
			l2.1-3.5v-7.3l-1-1.8l-0.1-2l0.7-1.4l-0.6-0.3l-1.2-1.3l0.4-1.3l-1.6-3.2l0.5-1.5h-1l-0.1-2l0.9-1l-0.1-5.3l3.5-0.7l1.5,0.6
			l0.2-3.1l1,0.9l2.4,4.8l2.2,0l1.2,1.8l3.8,0.7l2.1,0.7l2.2-2l2.5-0.5l7.1-1.8l0.7-1.9l15.8-3l8.5,1.2l2.9,1.2l0.4-0.6l-1.4-1
			l-3.2-0.4l-6.6-3.2l-1.5-4.9l-1.1-1.1l-6.9-2.4l-8.3-1.7l-2.3-3.6L92,18.4l1.4-3.7l-1.8-7.5l-4.9-3.6l-0.4-1.3l-2.4-0.7l0-1.5
			l-0.9,0.3l-1.7,2.4l-4.1,3.2l-3.4,3.6l-0.6,2.2l0.6,0.5l1.7,6.8l4.1,1.8l-0.6,3.1l0.4,0.4l0.1,0.5L77.8,26l-1.7,0l-1.7,1.7v2.9
			l-1.7,1.9v0.5l0.5,0.7l-1.7,2.6l-0.9,0.7l-0.9-1.5l0.6-0.1l0.1-0.4l-2.1-0.4l-1.5,3l-1.4,0.6l-0.8-2.4l-0.4,0L64,37.5l-1.6,0
			l0-1.2l-1.8,0l0.8-1.6l0.7-0.9l0.6,0.8h0.5l0.9-2.6l-2,0.6l-3-1.3l0-1.7l-4.1,0l-1.1-1.4l-1.2,0l-4.1-1.9l-0.6-1.3l-3.1-2.1v0.5
			l-1.3,0.1l-3.3,1v1.1L39,27v1.2l-1.7,2l-0.2,0.5l0.7-0.3l0.1,1.5l-1.1,1.3l-0.5,4.6l0.5,3.1l1.8,2.3l1.2,2.6l-0.6,2.4l0.5,1.6
			l0,0.5l-0.5,1.2l1.1,0.1l0,5.6l0.7,0.6L40.9,61l0.5,4.4l-0.5,4.8l2.8,3.7l0,2.9l1.1,0.7l2.3,2.4L49,82.9z"/>
	</g>
</g>
</svg>
