<?xml version="1.0" encoding="utf-8"?>
<!-- Generator: Adobe Illustrator 20.1.0, SVG Export Plug-In . SVG Version: 6.00 Build 0)  -->
<svg version="1.1" id="sussie" xmlns="http://www.w3.org/2000/svg" xmlns:xlink="http://www.w3.org/1999/xlink" x="0px" y="0px"
	 viewBox="0 0 128.3 82.9" style="enable-background:new 0 0 128.3 82.9;" xml:space="preserve">
<style type="text/css">
	.st0{stroke:#FFFFFF;stroke-width:0.5;}
</style>
<path class="st0" d="M70.4,56.4L69.3,57c-0.6,0-2.5,1.8-2.5,1.8v1.3l-3.2,3.1h-2.1l-0.8,1.9l2,3.4l-0.3,1l-1.2,0.6L61,71l-2.3,0.5v2
	l-0.3,1.4l-0.6,0.8h-2.4l-0.8,1v1.9h-2l-1.8-1l-0.5,1.2l-1-2l-3-0.3l-0.6-0.8l-1.2,1.1l-2.7,1.9l-1.4,0.5L38,78.4l-0.8,1.5h-1.4
	L35.5,81l-1-0.9L33.2,81l-1.7-2.5L31,76.8l-1-0.3v-1.2l-1.8-2.6l-1.4,0.8l0.4-3.4l-2.9-0.5l0.4-2.5l1.8-3.4l-1.8-1.4l-0.9-1l0.8-1.6
	L23,58.9l-5.3,0.4L16.3,59l-1,1.4l-1.6,0.5L13,61.5l-1.7-1.4l-1.8,1.4l-0.6,2.1l0.6,1.5l1.2-0.7l0.1,1.6l-1.9,1.1l-1.8,1.6l-1.5,1.1
	l-2.1-0.5l-2.1,0.6l0.5-2l-0.8-1l3.3-1.7l0.5,0.7l0.9-1l-0.9-1.2l1.2-2.3l0.8-1.4L4,58.2l0.5-0.9l1.2-3.2L5,52l4.4-4.5l3.6-2.1
	l1.6-1.4l-0.8-1.4l1.2-3.4L14,37.1l1.9-1.4l1.9-0.4l2.9-2.1l1.6-1l-1-0.8l1.5-0.8l3.6-2.8l2.4-3.7l-0.5-1.7H30l0.6-1.6h1.2l-1.4-1.6
	l-1.2,0.5l-2.5,0.2l0.8-1.8l1.1-1.2l1.4-1.1l-0.4-1.9l2.1,0.8l3-0.5h0.9L35,16.4h0.7l1.3,0.4l2-0.2l3.1-0.9l1-1l1.9-2.5l4.2-2.3
	l-0.4,2l1.4,0.4l3.5-2.4l1.9,0.5l0.3,1.5l4.6-0.5L63.2,9h3l1.4,1.9l1.6-0.1l2.7-0.1L72.3,9l1.9,0.6l0.9-1V6.8l-4,0.9l-1.9-1.8
	l1.4-2.7l2.9-2.4L76,1.7l1.7,0.5l0.5,1.6L80,6L80.8,4l1.8,1.4L82.3,7L84,7.3L87,6l4.7,1.3l-0.3-1.8l-1.6-2l-2.4-1.8l-0.7-0.8L88.7,0
	l1.9,2.7l2.3,0.9l0.3,1.6l3.2,2l1.8-0.5l3.2,1.3v1.6l2.7,1.1l1.8,0.5l1,1.8l-0.6,1l-1.9,0.3l-2.5-0.1l2.1,1.4l0.2,1.8l1.1,1.4
	l-1.8,1.2l-0.8,1.9l-1.6,1.8L99.9,27l0.7,2.7l-1.1,2.1l2.1,0.1l1.9,0.5l5.8,0.7l1.5,0.6l-0.6,2.5l2.9,1.7l2,0.6l1.4,1.3h4.1
	l-0.3-2.2l2-0.4l1.8-2.5l1.1-0.3l1.1,0.8l-0.3,1.2l1.4,0.2l-0.8,5.9l-1.1,0.5l0.8,1.5l-1.4,3.2l0.8,1.3l2.5,0.8l-0.8,2.9l-0.9,1
	l-2.5-1.4l-2-0.4l-0.6-2.1l-1.4-0.1l-2.3,1.2l-1.5,2.5l-1,3.2l1.5,1.5l1.3-0.4l1,0.8l-1.2,1.4l0.1,2.8l1.3,2.1l-2.5,1.6l-0.8-1.8
	l-1.7-0.8l0.1-2.3l-2.1-1.8l-2.2,0.8l-2.5,1.2l-1.1-0.8v1.4l-0.4,1.2l-2.6-0.1l-2.9-0.9l-1-2.3l-0.1-2.5l-0.1-3.1l-1.6,1.9L96,54
	l-1.9,0.8L93.4,57l-0.1,1.9l1.1,1.6v2.3L92,67.1l-3.4,2.7l-0.1,3.1l-1.9,0.5l0.3,1.9l-1,1.5l0.8,0.7l1.7,1.4l-1.9,4.1l-1-1l-1.9,0.3
	l0.8-1.3l-0.8-2.1l-0.2-2.1l-3.2-0.6l1.2-2.3l1-0.9l-1.4-1.7l-0.9,0.3l-0.8-0.9L78,70.9l-2.5-0.8l-1.3-1.7l-1.7-2.2l-2.1-0.7v-3.3
	l0.8-3.2L70.4,56.4z"/>
</svg>
