<svg id="sussie" xmlns="http://www.w3.org/2000/svg" viewBox="0 0 128.3 82.9"><style>.st0{stroke:#fff;stroke-width:.5}</style><path class="st0" d="M70.4 56.4l-1.1.6c-.6 0-2.5 1.8-2.5 1.8v1.3l-3.2 3.1h-2.1l-.8 1.9 2 3.4-.3 1-1.2.6-.2.9-2.3.5v2l-.3 1.4-.6.8h-2.4l-.8 1v1.9h-2l-1.8-1-.5 1.2-1-2-3-.3-.6-.8-1.2 1.1-2.7 1.9-1.4.5-2.4-.8-.8 1.5h-1.4l-.3 1.1-1-.9-1.3.9-1.7-2.5-.5-1.7-1-.3v-1.2l-1.8-2.6-1.4.8.4-3.4-2.9-.5.4-2.5 1.8-3.4-1.8-1.4-.9-1 .8-1.6-1.6-.8-5.3.4-1.4-.3-1 1.4-1.6.5-.7.6-1.7-1.4-1.8 1.4-.6 2.1.6 1.5 1.2-.7.1 1.6-1.9 1.1-1.8 1.6-1.5 1.1-2.1-.5-2.1.6.5-2-.8-1 3.3-1.7.5.7.9-1-.9-1.2 1.2-2.3.8-1.4L4 58.2l.5-.9 1.2-3.2L5 52l4.4-4.5 3.6-2.1 1.6-1.4-.8-1.4 1.2-3.4-1-2.1 1.9-1.4 1.9-.4 2.9-2.1 1.6-1-1-.8 1.5-.8 3.6-2.8 2.4-3.7-.5-1.7H30l.6-1.6h1.2l-1.4-1.6-1.2.5-2.5.2.8-1.8 1.1-1.2 1.4-1.1-.4-1.9 2.1.8 3-.5h.9l-.6 2.2h.7l1.3.4 2-.2 3.1-.9 1-1 1.9-2.5 4.2-2.3-.4 2 1.4.4 3.5-2.4 1.9.5.3 1.5 4.6-.5L63.2 9h3l1.4 1.9 1.6-.1 2.7-.1.4-1.7 1.9.6.9-1V6.8l-4 .9-1.9-1.8 1.4-2.7L73.5.8l2.5.9 1.7.5.5 1.6L80 6l.8-2 1.8 1.4-.3 1.6 1.7.3L87 6l4.7 1.3-.3-1.8-1.6-2-2.4-1.8-.7-.8 2-.9 1.9 2.7 2.3.9.3 1.6 3.2 2 1.8-.5 3.2 1.3v1.6l2.7 1.1 1.8.5 1 1.8-.6 1-1.9.3-2.5-.1 2.1 1.4.2 1.8 1.1 1.4-1.8 1.2-.8 1.9-1.6 1.8-1.2 3.3.7 2.7-1.1 2.1 2.1.1 1.9.5 5.8.7 1.5.6-.6 2.5 2.9 1.7 2 .6 1.4 1.3h4.1l-.3-2.2 2-.4 1.8-2.5 1.1-.3 1.1.8-.3 1.2 1.4.2-.8 5.9-1.1.5.8 1.5-1.4 3.2.8 1.3 2.5.8-.8 2.9-.9 1-2.5-1.4-2-.4-.6-2.1-1.4-.1-2.3 1.2-1.5 2.5-1 3.2 1.5 1.5 1.3-.4 1 .8-1.2 1.4.1 2.8 1.3 2.1-2.5 1.6-.8-1.8-1.7-.8.1-2.3-2.1-1.8-2.2.8-2.5 1.2-1.1-.8v1.4l-.4 1.2-2.6-.1-2.9-.9-1-2.3-.1-2.5-.1-3.1-1.6 1.9L96 54l-1.9.8-.7 2.2-.1 1.9 1.1 1.6v2.3L92 67.1l-3.4 2.7-.1 3.1-1.9.5.3 1.9-1 1.5.8.7 1.7 1.4-1.9 4.1-1-1-1.9.3.8-1.3-.8-2.1-.2-2.1-3.2-.6 1.2-2.3 1-.9-1.4-1.7-.9.3-.8-.9-1.3.2-2.5-.8-1.3-1.7-1.7-2.2-2.1-.7v-3.3l.8-3.2-.8-2.6z"/></svg>