<?xml version="1.0" encoding="utf-8"?>
<!-- Generator: Adobe Illustrator 20.1.0, SVG Export Plug-In . SVG Version: 6.00 Build 0)  -->
<svg version="1.1" id="Calque_1" xmlns="http://www.w3.org/2000/svg" xmlns:xlink="http://www.w3.org/1999/xlink" x="0px" y="0px"
	 viewBox="0 0 595.5 668.8" style="enable-background:new 0 0 595.5 668.8;" xml:space="preserve">
<style type="text/css">
	.st0{stroke:#FFFFFF;stroke-width:0.5;}
</style>
<g id="corse">
	<polygon class="st0" points="561.3,576.5 560.7,556.9 563.2,554.8 566.6,555.9 568.6,566.3 568,578 572.5,584.3 576.8,613.6 
		570.7,626.9 570.7,633.9 571.5,643.5 569.2,649.7 566.5,651.7 569.8,652.2 563.4,668.8 559.9,667.4 558.5,664.2 546,660.5 
		540.8,655.7 540.8,652 546.1,648.5 535.7,646.4 538.7,638.3 537.6,632 529.5,634.8 533,625.4 535.8,623.6 527,618.6 525.7,612.5 
		531.5,608.2 527.4,603.7 524.3,604.7 525,601.4 529.4,595.8 529.1,591.9 531.5,588.8 534.7,588.4 535.7,585.3 547.8,580.4 
		551.6,575 	"/>
</g>
<g id="auvergne">
	<polygon class="st0" points="313.9,421.6 314.8,427.8 319.1,434.5 317.2,440.9 320.8,446.6 326.8,442.9 333.7,444.7 338,439.1 
		341.5,429 346.8,424.2 352.5,428.8 353.9,433.5 356.7,435.3 356.2,438.7 359.1,444.4 366.8,426.6 368.7,429.2 377.5,421.6 
		380,423.5 381.6,429.7 388.7,431.3 389.2,428.1 392.4,428.5 402.4,436.9 410,429.8 416.7,427.7 420.4,421.1 424.2,420.7 
		423.4,417.4 426.4,414.8 428,409.1 430.8,410.4 430.9,406.9 432,402.2 429.5,399.7 426.5,400.8 425.8,394.6 419.1,392.2 412,395.5 
		409,395.8 406.3,393.6 403.3,394.6 406.5,386.5 403.5,378 398.5,374.1 393.1,365.3 395.3,358.2 392.7,355.1 398.8,349.8 
		397.1,335.8 397.7,332.3 402.1,331.1 406.2,325.8 406.8,319.6 404.9,317 396.1,313.7 388.6,298.6 381.9,305.2 377,301.2 373.9,303 
		366.7,302.9 360.2,295.8 355.7,295.8 350.3,300 340.9,303.2 338.3,305.3 340.2,311.2 338.3,314 328.7,315.1 324.5,321.8 
		325.9,326.2 334.1,331.6 338.2,341 337.7,345.6 340.3,353.2 329.7,362.7 334.8,369 336.1,375.2 334.1,377.9 336.2,393.6 
		329.4,391.6 328.6,395.2 320.2,405.9 322.2,408.4 319.7,410.5 319.2,414.4 315.7,415.8 317.5,419.3 	"/>
</g>
<g id="rhone-alpes">
	<polygon class="st0" points="402.4,436.9 404.7,447.2 412.6,463.2 421.3,468.8 429.2,463.8 429.3,467.4 432.2,464.8 435.5,465 
		442,468.7 442,464.6 448.5,465.3 452.3,469.9 462.3,465.7 464.9,467.3 467.8,464.9 468.4,471.3 478.8,472.3 478.9,475.4 484.7,478 
		489.5,472.7 493.3,472.4 493.5,467 482.2,460.7 480.6,457.7 484.2,452 488.9,453.6 491.7,450.8 488.3,448.2 491.1,440.6 
		497.6,440.3 498,436.5 499,433.1 505.2,431.7 506.2,428.5 520.3,424.3 523.8,425.5 524.3,418.9 519.3,415.5 517.3,410.8 
		519.1,406.4 527.8,410.4 530.1,408.2 537.6,406.8 559.3,397.5 561.6,393.4 560.2,390.5 563.4,384.7 555.2,378.9 552.7,372.8 
		553.5,369.3 547,366.6 544,363.7 543.4,360.1 552.9,350.9 554,347.4 550.1,342.2 541.4,334 544.1,327 539.9,321 540.3,317.8 
		536.7,317 527.4,317.7 521.6,322.4 517.7,320.7 514.6,327.4 517.1,330.7 509.3,336.7 501.6,337.8 502.1,332.1 508.5,328.1 
		509.8,320.3 505.7,317.9 499.9,325.3 493.8,329 489.4,329.2 488.9,326.1 485.1,324.3 480.6,329.1 477.4,329.4 477.3,326 
		474.1,325.9 469.2,317.3 463.8,313.7 457.7,315.1 451.1,313.4 444.5,336.9 438.1,328.3 436.4,330.9 433.6,329 431.1,331.1 
		428.6,329 425.9,331.2 425.6,334.5 419.2,338.9 416.9,336.4 407.9,338.1 402.1,334.5 402.1,331.1 397.7,332.3 397.1,335.8 
		398.8,349.8 392.7,355.1 395.3,358.2 393.1,365.3 398.5,374.1 403.5,378 406.5,386.5 403.3,394.6 406.3,393.6 409,395.8 412,395.5 
		419.1,392.2 425.8,394.6 426.5,400.8 429.5,399.7 432,402.2 430.9,406.9 430.8,410.4 428,409.1 426.4,414.8 423.4,417.4 
		424.2,420.7 420.4,421.1 416.7,427.7 410,429.8 	"/>
</g>
<g id="provence-alpes-cote-d-azur">
	<polygon class="st0" points="442,468.7 444.9,473.8 445.2,479.9 452.3,487 442.8,497.2 440.6,509.1 437.2,508.2 432.2,513.5 
		433.4,516.5 426.9,518.4 422.7,525.2 439.4,525.9 441.6,528.7 441.1,531.8 445.2,532.7 456,531.5 453.6,528.9 455.1,526 
		458.1,526.4 463.2,532.4 478.1,530.7 482.5,540.6 493.4,543.4 496.5,542.4 503.6,546.5 503.2,549.7 513.2,546.8 519.8,548.6 
		521.2,551.8 523.5,545.5 531.8,546.9 531.8,543.7 538.2,542.4 541.2,539.6 545.5,539.9 548,533.9 544,532 551,522.9 557,522.1 
		561.8,513.5 568.3,510.5 569.5,505.8 585.7,496.8 586.2,488.8 593.2,479.2 595.5,474.2 591,468.4 577.6,473.1 567.3,467.6 
		560.3,466.2 553.2,457.7 555.3,452.2 551,446.1 553.5,444.1 555,437.3 557.2,434.7 561.2,434.8 557,424.3 550,423.9 544.5,420.4 
		543.3,412.9 540.3,412.8 537.6,406.8 530.1,408.2 527.8,410.4 519.1,406.4 517.3,410.8 519.3,415.5 524.3,418.9 523.8,425.5 
		520.3,424.3 506.2,428.5 505.2,431.7 499,433.1 498,436.5 497.6,440.3 491.1,440.6 488.3,448.2 491.7,450.8 488.9,453.6 484.2,452 
		480.6,457.7 482.2,460.7 493.5,467 493.3,472.4 489.5,472.7 484.7,478 478.9,475.4 478.8,472.3 468.4,471.3 467.8,464.9 
		464.9,467.3 462.3,465.7 452.3,469.9 448.5,465.3 442,464.6 	"/>
</g>
<g id="languedoc-roussillon">
	<polygon class="st0" points="422.7,525.2 419.7,524.6 416.4,519 407,521.5 394.7,530.6 387.3,538.8 379.7,538.7 373.4,543.4 
		370.8,546.2 364.3,558.2 363.7,569.3 364.2,589.1 370.5,597.2 361,594.7 353.9,595.9 344.9,600.7 344.8,603.9 337.8,604.5 
		332.8,600.6 322,598.1 318.6,598.3 313.5,602.9 309.8,602.5 307.2,596.2 297.4,593.2 299.8,587.5 308.7,584.6 310.2,581.7 
		318.3,581.5 313.2,575 309.4,576.5 305.6,574.9 304.7,568.3 308.1,567.7 309.6,564.4 306.8,561.6 309.3,559 309.1,555.6 
		306.8,549.7 297,545.4 294.3,539.1 303.8,527.9 305.5,530.9 311.3,528.8 311.7,527.9 314.1,530.7 320.9,531.6 322.2,527.9 
		325.4,527.4 338.6,529 342.5,526.5 343.6,523.3 342.7,512.5 349.6,514.9 357.4,510 363.5,510.2 363.8,500.5 370.7,501.8 
		374.1,495.7 378.3,494.7 378,492.9 382.7,487.3 373.6,482.5 376.4,481.2 378.8,477 368.1,471.7 366.4,469.1 367.1,459.3 
		363.8,449.5 359.1,444.4 366.8,426.6 368.7,429.2 377.5,421.6 380,423.5 381.6,429.7 388.7,431.3 389.2,428.1 392.4,428.5 
		402.4,436.9 404.7,447.2 412.6,463.2 421.3,468.8 429.2,463.8 429.3,467.4 432.2,464.8 435.5,465 442,468.7 444.9,473.8 
		445.2,479.9 452.3,487 442.8,497.2 440.6,509.1 437.2,508.2 432.2,513.5 433.4,516.5 426.9,518.4 	"/>
</g>
<g id="midi-pyrennees">
	<polygon class="st0" points="299.6,587.8 287.6,582.1 283.9,582.3 282.7,585.5 276.3,577.1 269.1,577.6 263.7,572.7 245,567.2 
		242.2,568.6 242.6,576 240.1,578.4 232.8,578 222.2,578.2 219.2,575.8 205.5,577.7 192.7,566.5 193.6,557.1 195.5,553.5 
		199.2,552.7 198.8,549.3 207.8,539 206.9,535.6 209.9,533.9 209.4,525.8 206.1,525.7 207.6,523 204.9,516.1 197.6,515.7 196,513 
		200.5,500.3 199.9,493.4 210.5,490.1 211.1,493.2 214,491.7 214.3,488.7 218.6,489.4 220.1,486.7 229.5,487.3 235.1,484.2 
		244.4,485.3 247.8,483.7 251.8,478.5 254.9,478.8 253.5,475.7 258.4,469.5 255.6,467.9 255.6,464.7 264.1,462.4 261.1,452.4 
		265,448.6 270.3,441.6 276.9,437.6 276.2,433.6 281,430.2 282.8,424.4 283.6,418.4 292.7,417.6 300.4,424.4 306.2,421.5 
		313.9,421.6 314.8,427.8 319.1,434.5 317.2,440.9 320.8,446.6 326.8,442.9 333.7,444.7 338,439.1 341.5,429 346.8,424.2 
		352.5,428.8 353.9,433.5 356.7,435.3 356.2,438.7 359.1,444.4 363.8,449.5 367.1,459.3 366.4,469.1 368.1,471.7 378.8,477 
		376.4,481.2 373.6,482.5 382.7,487.3 378,492.9 378.3,494.7 374.1,495.7 370.7,501.8 363.8,500.5 363.5,510.2 357.4,510 
		349.6,514.9 342.7,512.5 343.6,523.3 342.5,526.5 338.6,529 325.4,527.4 322.2,527.9 320.9,531.6 314.1,530.7 311.7,527.9 
		311.3,528.8 305.5,530.9 303.8,527.9 294.3,539.1 297,545.4 306.8,549.7 309.1,555.6 309.3,559 306.8,561.6 309.6,564.4 
		308.1,567.7 304.7,568.3 305.6,574.9 309.4,576.5 313.2,575 318.3,581.5 310.2,581.7 308.7,584.6 	"/>
</g>
<g id="limousin">
	<polygon class="st0" points="279.7,410.5 283.6,418.4 292.7,417.6 300.4,424.4 306.2,421.5 313.9,421.6 317.5,419.3 315.7,415.8 
		319.2,414.4 319.7,410.5 322.2,408.4 320.2,405.9 328.6,395.2 329.4,391.6 336.2,393.6 334.1,377.9 336.1,375.2 334.8,369 
		329.7,362.7 340.3,353.2 337.7,345.6 338.2,341 334.1,331.6 325.9,326.2 324.5,321.8 319.2,321.6 316,322.5 301.3,319.5 
		299.1,322.3 286.3,323.4 283.1,326.7 281.1,324 274.6,325.3 270.8,323.5 269.4,326.3 265.6,325.3 264.2,328.7 257.9,331.7 
		254.5,337.3 254.3,346.9 259.6,351 259,354.5 256.1,355.7 251.5,364.8 248.5,365.4 244.6,369.6 251.6,373.1 251.6,378.3 
		262.2,377.1 270.3,383.4 268.2,386.5 274.3,388.8 277.7,394.3 273.6,399.5 275.5,402.7 273.1,404.8 275.9,406.4 276.1,409.9 	"/>
</g>
<g id="aquitaine">
	<path class="st0" d="M178.7,394.5l0.9,3.3l-2.4,3.6l-2.8-8.6l-11.9-11.7l-1.2-3.3l-3.3,6.5l-7,56.2l4.5-8.7l5,5.8l0.2,3.2l-7.1-1.1
		l-3.5,7.6v5.5L137.7,509l-4.2,7.9l-5.3,7.3l-7,5.1l6.5,3l0.6,3.6l2.3-2.2l7.6,1.3l1.6,3.1l-2.1,6.7l-3,2.6l1.4,3.2l4.4,1l0.5-4
		l3.4-1l0.3,3.7l6.5,3.6l10.9,4.2l7-0.4l2.7,5l9,7.4l2.7-1.8l2.6,1.6l6.6-3.4l0.9-9.4l1.9-3.6l3.7-0.8l-0.4-3.4l9-10.3l-0.9-3.4
		l3-1.7l-0.5-8.1l-3.3-0.1l1.5-2.7l-2.7-6.9l-7.3-0.4L196,513l4.5-12.7l-0.6-6.9l10.6-3.3l0.6,3.1l2.9-1.4l0.3-3l4.3,0.7l1.5-2.7
		l9.4,0.6l5.6-3.1l9.3,1.1l3.4-1.6l4-5.2l3.1,0.3l-1.4-3.1l4.9-6.2l-2.8-1.6v-3.2l8.5-2.3l-3-10l3.9-3.8l5.3-7l6.6-4l-0.7-4l4.8-3.4
		l1.8-5.8l0.8-6l-3.9-7.9l-3.6-0.6l-0.2-3.5l-2.8-1.6l2.4-2.1l-1.9-3.2l4.1-5.2l-3.4-5.5l-6.1-2.3l2.1-3.1l-8.1-6.3l-10.6,1.2v-5.2
		l-7-3.5l-6.1,6.7l-2.5,6.2l-9,6.6l-0.7,6.1l-4.6,6.7l-6.1,0.9l-2.4,2.2l-0.1,0.7l-2.2,5.4l-10.5-1.2l-6.9-4.6l-0.7-6.6l-7.1-1.9
		l-0.8-3.1C183,393.9,178.7,394.5,178.7,394.5z"/>
</g>
<g id="franche-comte">
	<polygon class="st0" points="469.2,317.3 474.1,325.9 477.3,326 477.4,329.4 480.6,329.1 485.1,324.3 488.9,326.1 489.4,329.2 
		493.8,329 499.9,325.3 505.7,317.9 509.8,304.3 522.8,292.3 522,281.4 531.8,274.4 544.7,258.5 544.5,255.3 547.1,252.9 
		542.3,248.9 543.4,245.5 547.6,240.8 551.6,240.3 549.2,234.5 546,234.5 545.5,224.6 537,218.9 536,219.6 526.6,212.1 520.9,214.6 
		515.3,210.7 509,212.3 501.1,207.7 492,214 492.2,215.6 489.6,219.3 486.6,219 484.2,221.6 483.8,230.9 480.3,232.1 477.8,230.1 
		470.4,234.5 469.4,237.1 472.1,235.3 474.5,238.8 474.6,242.4 469.3,246.9 472.3,248.6 476.8,257.7 475.4,259.1 473.4,268.4 
		466.4,275.9 465.2,280.6 465.7,284 475,288.8 469.3,293 472.1,294.8 474.6,304.6 471.4,310.2 472.3,316 	"/>
</g>
<g id="bourgognne">
	<polygon class="st0" points="360.2,295.8 366.7,302.9 373.9,303 377,301.2 381.9,305.2 388.6,298.6 396.1,313.7 404.9,317 
		406.8,319.6 406.2,325.8 402.1,331.1 402.1,334.5 407.9,338.1 416.9,336.4 419.2,338.9 425.6,334.5 425.9,331.2 428.6,329 
		431.1,331.1 433.6,329 436.4,330.9 438.1,328.3 444.5,336.9 451.1,313.4 457.7,315.1 463.8,313.7 469.2,317.3 472.3,316 
		471.4,310.2 474.6,304.6 472.1,294.8 469.3,293 475,288.8 465.7,284 465.2,280.6 466.4,275.9 473.4,268.4 475.4,259.1 476.8,257.7 
		472.3,248.6 469.3,246.9 474.6,242.4 474.5,238.8 472.1,235.3 469.4,237.1 463.8,239.4 463.7,236.3 460.4,234.5 450,232.3 
		447.4,226.8 450.6,224 449.4,220.6 447.5,218.2 444.2,217.9 444.6,214.6 441.7,213.4 440.9,210.4 432.7,209.1 427.4,213.5 
		420.6,214.5 418.1,216.7 414.9,215.2 400.7,216.9 395.1,204.7 390.9,200.2 388.9,202.5 386.1,193.2 381.1,187 376.9,185.3 
		359.6,188.8 359.3,195.2 355.1,201.3 362.4,209.7 362.9,216.2 358,221.6 359,225 357.3,227.5 351.3,231.4 354.5,234.4 357.2,242.2 
		354.1,243 352.4,245.6 354.6,253 352.7,259.6 355.7,261.9 359.2,270.4 359.4,276.9 362,279.3 361.7,285.8 	"/>
</g>
<g id="centre">
	<polygon class="st0" points="219.7,268.8 225.6,272.5 226.1,276 229.4,275.7 230.8,282.5 233.9,284.2 245.1,283.5 243.7,280.4 
		249.6,283.7 249.9,287.2 260.1,301.9 259.2,308.4 264.5,313.2 267.8,313.2 270.6,319.3 273.4,320.8 271.8,324 274.6,325.3 
		281.1,324 283.1,326.7 286.3,323.4 299.1,322.3 301.3,319.5 316,322.5 319.2,321.6 324.5,321.8 328.7,315.1 338.3,314 340.2,311.2 
		338.3,305.3 340.9,303.2 350.3,300 355.7,295.8 360.2,295.8 361.7,285.8 362,279.3 359.4,276.9 359.2,270.4 355.7,261.9 
		352.7,259.6 354.6,253 352.4,245.6 354.1,243 357.2,242.2 354.5,234.4 351.3,231.4 357.3,227.5 359,225 358,221.6 362.9,216.2 
		362.4,209.7 355.1,201.3 342.4,204.3 332.2,203.6 335,201.8 335.7,198.7 331.1,193.9 330.3,190.5 326.1,189.8 323,191.7 
		321.2,188.8 319.2,192 311.4,192.8 308.2,180.9 304.7,181.7 302.3,179.2 300.8,173 293.8,166.8 293.3,154.8 289.1,147.4 
		282.5,155.1 282.8,158.2 276.1,159.7 272.9,158 266.9,161.6 260.3,162.7 257.5,165.6 257.6,169.2 262.9,174.2 263.3,184.3 
		255,190.2 256.1,198.6 258.5,202.8 258,204.9 255.7,207.2 257.8,209.8 258.1,215.9 251.1,227.8 247.5,228.9 246.9,232.9 238.2,238 
		235.1,237.6 235.7,241.3 228.8,238.4 228.1,240.7 226.1,251.7 	"/>
</g>
<g id="poitou-charente">
	<g>
		<polygon class="st0" points="178.7,394.5 176.6,386.3 164.9,373.6 156,368.1 154.6,363.3 160,359.7 163.3,353.2 161.5,347.2 
			164.6,346.7 160,337.7 156.7,336.7 161.8,325.8 171.1,322 169.7,325.3 176.8,325 179.4,327 189.7,321.9 187,319.9 187.1,311.5 
			181.8,291.3 177.2,286.7 174.5,280.3 188.4,279.3 192.4,274.1 198.9,273.2 209.6,272.9 212.1,275.6 219.7,268.8 225.6,272.5 
			226.1,276 229.4,275.7 230.8,282.5 233.9,284.2 245.1,283.5 243.7,280.4 249.6,283.7 249.9,287.2 260.1,301.9 259.2,308.4 
			264.5,313.2 267.8,313.2 270.6,319.3 273.4,320.8 271.8,324 270.8,323.5 269.4,326.3 265.6,325.3 264.2,328.7 257.9,331.7 
			254.5,337.3 254.3,346.9 259.6,351 259,354.5 256.1,355.7 251.5,364.8 248.5,365.4 244.6,369.6 238.5,376.3 236,382.5 227,389.1 
			226.3,395.2 221.7,401.9 215.6,402.8 213.2,405 213.1,405.7 210.9,411.1 200.4,409.9 193.5,405.3 192.8,398.7 185.7,396.8 
			184.9,393.7 		"/>
		<polygon class="st0" points="155.3,360.7 156.8,357.2 155.7,348.8 150,345.1 148.1,348.1 		"/>
		<polygon class="st0" points="142.7,329 150.6,336.1 153.8,334.7 147.8,330.8 144,332.1 		"/>
	</g>
</g>
<g id="pays_de_la_loire">
	<polygon class="st0" points="103,243.9 98.1,248.9 100.7,255.8 107.6,256.9 109.8,259.2 115.4,255.1 123.2,254.5 116.3,257.2 
		115.2,264.8 112.1,266.1 118.4,268.6 123.8,274.3 115.6,283 115.1,279.2 111.7,277.1 110.6,273.6 108.5,276.1 115.5,283 
		115.1,283.6 115.5,288.5 127.2,302.2 129.6,310.1 138.7,317.7 144,318.9 145.9,322.9 152.5,324.2 157.8,328.5 158.6,325.4 
		161.4,325.8 171.1,322 169.7,325.3 176.8,325 179.4,327 189.7,321.9 187,319.9 187.1,311.5 181.8,291.3 177.2,286.7 174.5,280.3 
		188.4,279.3 192.4,274.1 198.9,273.2 209.6,272.9 212.1,275.6 219.7,268.8 226.1,251.7 228.1,240.7 228.8,238.4 235.7,241.3 
		235.1,237.6 238.2,238 246.9,232.9 247.5,228.9 251.1,227.8 258.1,215.9 257.8,209.8 255.7,207.2 258,204.9 258.5,202.8 
		256.1,198.6 252.5,197.7 249,193.8 245.8,194.9 237.7,189.4 235.8,179.8 232.8,178.2 220.5,184.7 217.1,184.6 217,181.3 
		213.4,179.6 211.3,173.1 208.1,172.6 207.4,175.6 197.2,175.6 189.6,179.4 186.8,177.5 184.1,179.2 180.3,175 170.7,174.2 
		170.6,187.7 168.9,190.3 171,209.8 164.9,212.3 160.8,221.9 160.4,224.3 152.7,220.4 142.6,224.8 140.8,227.9 126,228.4 
		120.3,232.3 119.7,239 	"/>
</g>
<g id="alsace">
	<polygon class="st0" points="537,218.9 545.5,224.6 546,234.5 549.2,234.5 551.6,240.3 555.1,241 554.3,244.3 562.7,244.4 
		565.9,243.2 566.6,239.7 569.8,239.6 569.9,236 572.3,233.9 569.1,225.2 572.2,207.8 570.1,196.3 576.7,180.6 578.3,163.1 
		590.1,147.7 594.5,135.7 585,132.3 568.1,131.6 566.3,136.6 564.6,139.7 554.7,139.9 544.5,134.8 543.6,131.6 538.1,143.7 
		544.2,146.5 542.4,149.2 544.8,151 546.5,148.2 549.6,148.6 554.6,152.5 551.3,167.3 548.8,169.3 545,169 547,170.5 545.5,181.7 
		551.1,184.2 550.2,185.1 545.5,200.4 540.2,209.1 540.1,216.2 	"/>
</g>
<g id="lorraine">
	<polygon class="st0" points="492,214 490.5,211.2 487.5,212.4 487.2,208.8 481.1,203.6 483.1,194.1 468.7,183.4 471.3,180.7 
		452.5,168.9 448.6,163.1 448.1,158.7 444.4,153.4 445.7,146.9 449.1,145.7 449.9,141.3 446.9,139.8 448.1,135.3 445.7,125 
		450.3,121.1 449,118.1 452.5,112.5 451.5,102.6 453.6,100.5 459.9,102.8 462.3,99.8 464.4,98.3 465.1,98.3 468.9,106.3 
		475.1,105.6 476.6,102.4 484.3,102.4 488,105.6 494.1,108.4 497.2,108.2 502.2,104.3 514.7,107.2 517.9,109.5 519.8,116.1 
		528.8,126.3 531.9,127.1 532.3,123.8 535.5,122.2 538.9,123.8 541.3,128 544.2,126.6 551.9,128.1 559.1,123.4 568.1,131.6 
		566.3,136.6 564.6,139.7 554.7,139.9 544.5,134.8 543.6,131.6 538.1,143.7 544.2,146.5 542.4,149.2 544.8,151 546.5,148.2 
		549.6,148.6 554.6,152.5 551.3,167.3 548.8,169.3 545,169 547,170.5 545.5,181.7 551.1,184.2 550.2,185.1 545.5,200.4 540.2,209.1 
		540.1,216.2 537,218.9 536,219.6 526.6,212.1 520.9,214.6 515.3,210.7 509,212.3 501.1,207.7 	"/>
</g>
<g id="champagne-ardenne">
	<polygon class="st0" points="379.7,153.3 379.2,155.7 376.3,158.1 380.2,167.6 383.1,169.2 379.8,174.9 376.4,175.7 376.9,185.3 
		381.1,187 386.1,193.2 388.9,202.5 390.9,200.2 395.1,204.7 400.7,216.9 414.9,215.2 418.1,216.7 420.6,214.5 427.4,213.5 
		432.7,209.1 440.9,210.4 441.7,213.4 444.6,214.6 444.2,217.9 447.5,218.2 449.4,220.6 450.6,224 447.4,226.8 450,232.3 
		460.4,234.5 463.7,236.3 463.8,239.4 469.4,237.1 470.4,234.5 477.8,230.1 480.3,232.1 483.8,230.9 484.2,221.6 486.6,219 
		489.6,219.3 492.2,215.6 492,214 490.5,211.2 487.5,212.4 487.2,208.8 481.1,203.6 483.1,194.1 468.7,183.4 471.3,180.7 
		452.5,168.9 448.6,163.1 448.1,158.7 444.4,153.4 445.7,146.9 449.1,145.7 449.9,141.3 446.9,139.8 448.1,135.3 445.7,125 
		450.3,121.1 449,118.1 452.5,112.5 451.5,102.6 453.6,100.5 459.9,102.8 462.3,99.8 464.4,98.3 461.5,98.6 461.5,95 454.7,93.3 
		447,86.7 440.6,86.7 441.5,79.6 438.3,73 438.3,68.5 441.3,62.8 438.3,61 433.7,65.8 431.7,73 421.8,77.4 415.9,75.6 412,76.3 
		412.9,82.7 411.3,86.6 412.9,90.2 407.3,98.2 404.1,98.6 404.5,114.6 403.3,117.7 397.5,115.7 388.6,120.3 387.1,123.2 
		390.7,132.2 384.5,134.7 386.4,137.3 385.4,140.6 388.3,141.9 	"/>
</g>
<g id="ile-de-france">
	<polygon class="st0" points="289.1,147.4 293.3,154.8 293.8,166.8 300.8,173 302.3,179.2 304.7,181.7 308.2,180.9 311.4,192.8 
		319.2,192 321.2,188.8 323,191.7 326.1,189.8 330.3,190.5 331.1,193.9 335.7,198.7 335,201.8 332.2,203.6 342.4,204.3 355.1,201.3 
		359.3,195.2 359.6,188.8 376.9,185.3 376.4,175.7 379.8,174.9 383.1,169.2 380.2,167.6 376.3,158.1 379.2,155.7 379.7,153.3 
		369.1,146.5 364.9,142 365.6,138.8 363.7,136 360.7,135.2 351.5,138.5 348.8,136.7 346.5,139.1 338.8,138 326.5,130.8 324.1,132.6 
		313.7,130.2 306.6,132.2 300.3,130.9 298.8,127.2 294.1,138 289.8,138 287.2,140.8 	"/>
</g>
<g id="bretagne">
	<g>
		<polygon class="st0" points="103,243.9 101.3,241.1 104.7,241 101.6,239.2 87.7,240.3 82.6,236.2 89.2,237 91.6,234.2 89.3,231.6 
			85.2,230.9 83.5,233.6 79.9,228.2 81.3,234.7 78.7,232.9 75.1,233.7 71.9,236.3 73.3,239.5 70.9,236.9 71.8,232.8 69.4,229.6 
			69.1,226.6 71.7,225.1 68.8,226.4 64.6,224.6 63,221.8 65.4,219.4 62.1,218.7 61.4,215.3 61.9,221.9 58.9,223.4 56.1,221.7 
			55.3,213 55,216.3 50.8,218.2 47.5,217.3 48.3,214.2 45.4,215.3 44.9,212.1 44.8,215.3 41.8,216 36.5,209.3 31.4,211.2 
			28.2,209.2 28.6,202.1 30.3,205 27,205.7 28,209.5 23.8,214.2 15.7,213.3 16.8,207.1 12.7,200.2 2,196.1 3.8,193.5 17.9,192.1 
			20.5,193.5 22.4,190.7 21.4,187.2 15.4,183.7 12.2,183.3 10.2,186.4 7.5,180.5 9.2,176.4 11.1,179.2 17.7,180.5 21.9,179.2 
			23.5,182 30,183.6 23.2,180.7 26.3,179.9 23.2,178.5 23.7,175.2 17.1,176.9 17.7,173.1 21.8,171.1 8.1,175.2 5,173.8 2,175.1 
			0,172.5 1.7,162.3 3.7,159.7 13,160.7 10.3,159.2 21.6,153 23.3,155.9 39.4,151.2 39.6,158.3 41.5,154.9 43.9,157.8 44.7,154.1 
			47.8,153.3 53.2,156.7 57,156.1 57.2,149 62.2,145.2 64,147.9 73.8,143.8 74.7,147.7 79.9,144.2 78.3,151.6 80.2,148.2 
			83.6,147.8 82.8,151 86.2,151.8 91.3,160.5 91.4,164 95.9,167 97,171.1 109,161.1 112.9,160.7 114.1,163.7 117.5,162.1 
			118.7,165.6 123.3,165 123.3,163 126.5,163.2 128.5,168.1 131,170.1 128.2,163.8 132.7,159.6 136.3,158.7 136,164.9 148.2,165 
			153.6,175.8 156.6,176.9 164.5,171.5 170.7,174.2 170.6,187.7 168.9,190.3 171,209.8 164.9,212.3 160.8,221.9 160.4,224.3 
			152.7,220.4 142.6,224.8 140.8,227.9 126,228.4 120.3,232.3 119.7,239 		"/>
		<polygon class="st0" points="68.2,247.4 73.9,251.3 69.5,252.6 66.1,251.6 65,247.9 		"/>
	</g>
</g>
<g id="basses-normandie">
	<polygon class="st0" points="257.5,165.6 257.6,169.2 262.9,174.2 263.3,184.3 255,190.2 256.1,198.6 252.5,197.7 249,193.8 
		245.8,194.9 237.7,189.4 235.8,179.8 232.8,178.2 220.5,184.7 217.1,184.6 217,181.3 213.4,179.6 211.3,173.1 208.1,172.6 
		207.4,175.6 197.2,175.6 189.6,179.4 186.8,177.5 184.1,179.2 180.3,175 170.7,174.2 164.5,171.5 156.6,176.9 153.6,175.8 
		148.2,165 156.9,164.2 157.9,161 155.3,162.5 152.3,161.2 147.6,150.6 150.1,144.2 150.7,137.5 148.5,134.4 150,123.1 140.5,112.8 
		137.6,101.3 139.7,99.1 139.1,93.6 135.5,91.6 135.7,88.4 148.4,93.6 155.9,93 158.8,91.1 165.9,91.8 167,94.9 164.3,103.7 
		171.6,115.5 177.5,112.9 188.2,116.7 202.2,118.2 211.7,122.2 222.5,119.2 228.1,114.4 235.2,112.8 235.5,122.5 238.7,122.5 
		236.1,124.8 239.3,135.5 237.7,138.7 240.3,143.4 239.6,145.8 239.7,149.4 246.8,150.1 255.6,160.7 253.7,163.2 	"/>
</g>
<g id="haute-normandie">
	<polygon class="st0" points="298.8,127.2 303,124.6 299.1,115.1 300.5,106 299,96.3 302.5,91 298.6,81.6 285,69.7 272.9,78.2 
		248.3,84.2 232,93 225.6,107.1 227.5,109.6 237.5,111.9 235.2,112.8 235.5,122.5 238.7,122.5 236.1,124.8 239.3,135.5 237.7,138.7 
		240.3,143.4 239.6,145.8 239.7,149.4 246.8,150.1 255.6,160.7 253.7,163.2 257.5,165.6 260.3,162.7 266.9,161.6 272.9,158 
		276.1,159.7 282.8,158.2 282.5,155.1 289.1,147.4 287.2,140.8 289.8,138 294.1,138 	"/>
</g>
<g id="picardie">
	<polygon class="st0" points="408.2,74.9 390.1,70.1 384.2,72.1 381.6,70.1 378.7,72.6 364.5,73.3 360.8,70.4 351.4,72.5 
		350.3,68.9 347.7,70.7 344.7,65.8 343.6,68.7 334.2,64.8 331.4,68.2 329.5,64.6 332.3,58.4 318.9,61.1 310.9,54.5 309.9,51.3 
		296.7,49.9 292.7,51.5 292.2,54.8 295.5,60.8 292.5,59.4 285,69.7 298.6,81.6 302.5,91 299,96.3 300.5,106 299.1,115.1 303,124.6 
		298.8,127.2 300.3,130.9 306.6,132.2 313.7,130.2 324.1,132.6 326.5,130.8 338.8,138 346.5,139.1 348.8,136.7 351.5,138.5 
		360.7,135.2 363.7,136 365.6,138.8 364.9,142 369.1,146.5 379.7,153.3 388.3,141.9 385.4,140.6 386.4,137.3 384.5,134.7 
		390.7,132.2 387.1,123.2 388.6,120.3 397.5,115.7 403.3,117.7 404.5,114.6 404.1,98.6 407.3,98.2 412.9,90.2 411.3,86.6 
		412.9,82.7 412,76.1 	"/>
</g>
<g id="nord-pas-de-calais">
	<polygon class="st0" points="296.6,49.9 294.1,48 293.7,43.5 294.5,37.1 297.6,39.1 294.3,35.2 294.4,15 300.9,9.4 315.9,4.6 
		334.5,0 337.7,1.9 340.5,8.6 339.3,15.1 340.8,18.1 344.5,18.1 347.6,23.8 351,25.4 357.3,21.1 363.8,20.5 368.2,25.5 367.7,28.8 
		371.1,38.1 374.7,39.6 377.9,37.1 379.4,40.2 385.3,41.6 387.7,51.8 390.2,49.6 396.4,51 402.9,49.9 407.5,55.2 410.9,54.7 
		408.5,61.9 411.9,67.8 408.2,74.9 390.1,70.1 384.2,72.1 381.6,70.1 378.7,72.6 364.5,73.3 360.8,70.4 351.3,72.4 350.3,68.9 
		347.7,70.7 344.6,65.6 343.6,68.7 334.1,64.8 331.3,68.3 329.4,64.7 332.3,58.4 318.9,61.1 310.9,54.5 309.9,51.3 	"/>
</g>
</svg>
