<svg xmlns="http://www.w3.org/2000/svg" viewBox="0 0 380 324.3"><style>.st0,.st1{stroke:#fff;stroke-width:.5}.st1{stroke-width:.4587}</style><path class="st0" d="M365.6 303.7l-1.8-1.8-1.8.3.9 7.3 2.9 3.2 3.1.9h1.3l4.3-2.9-.5-5.2 6-20.6-.7-1.8-1.7-1.3-14-8-3.7 4.1-.5 1.6v3.2l2.1 1.4 4.9 9.4 2.7 7.6-1 1.6z" id="mayotte"/><path class="st0" d="M251 280.8v-1.3l-2.6-3.3-1.3-2.7.8-4.2v-1.1l-5.7-6.7h-2.3l-1.3-.5-1-.3-1.2-1.8-3.3-.9-4.4.1-2.2-1.3h-7l-2-1.9h-2.3l-3.3.6-1.8.7-1.9 1.3-5.9 4.5-.9.1-3.6-.6-1.3 4.2.7 2.5-.7 2.7-.5 1-2.7 1.8h-2l-1.8 1.9-.7 1.1.7 1.4v3.1l3.8 4.4 1.9 4 .1 1.1 1.3.8.7 4-1.3 1.9 1.8 4.4 2.7 2.1 1.2 1.2.7 2.4 5.8 2.1 2.6 1.8 1.2 2.6 3.9 1.3 1.2 1.2 10.4 4.8 5.3.5 1.9 2 8.2.5.6-1.8 11.7-.7 4.4-3.9-.7-11.3 3.4-9.5h1.2v-.4l-.7-4.2-2.6-2-2.6-.7z" id="réunion"/><path class="st0" d="M11.6 295.5l3.2-4.9h1.1l2.9-8-3.6-3.6-.4-1.2-3.4-2.7-3.8-6.2v-2.5l-2.1-1.2-.4-4-1.2-2.6.5-6.4v-2.8l-1.4-.5 1.4-7.7 4.5-5.7.4-1.5 7.4-5 2-2v-2.7l1.7-3.7h.9l.5-.6 12.8 6.9 7.5 3 6.7.9 2.1 1-.5-.9 5.6 2.6 6.6 7.7 5.5 4.1 1.1-.5 3.3 1.3-.2.4-1.9.5-.7 3.6 1.6-2.5 1.8-.1 1.1 1.2 5.1 3.8 1.9 5.1-.6 1.3-3.4 3.5 1.2.3 3.4-2.1.4-7H84l3 3.9v1.1l2 5.7 1.4 1.4v3.6l-3 2.3-1.4 3.2-3.4 2.1-.7 1.8-1.2.8-8.4 12.9-3.4 2.6v3.6L62.6 310v2.6l-5.2 5.7-4.5 1.3-.6 2.6-3.7 1.9-3-2.4-5.6.4.6-1.6-1.6-2.3-1.3-.4-4 3-3.7-1.3-4.5-.4V317l-6.2 2.7 1 1.3-5 1.2-1.8 2.3-12.1-3.6.3-2.4-1.7-1.3.3-.4h2.1l1.8-3 2.6-1.4c1.4-3.5 1.9-4.6 1.9-4.6l3-4 .6-3h.6l-.6-4.7-.7-.6z" id="martinique_1_"/><path class="st0" d="M264.6 69.5v1.9l3.5.5v-2.4h1.5l.6-.7h.9v2.1l1.3 1.4-1.3.2-.1 1.9 2.2 1v2.1l3.8 3.8-3.8 1.4-.7 1.7h-1.6l-4.3-1.7.9-1.6V80l-1.2 1.1-1.4-2.2-3.1 3.7-1.9.1-3.7 5.6v1.4h1.8l.2 2.4 1.3.8-.6 3.7 1.7.6 1.1 2.7 2.8-.7h.7l.3-1.9 4.8-2.8 2.3 2.1.6-1.1 1.1-1 .3 2.2 1.4.4 1.9-2.6 1 .1v2.5l1.2.2.4-.9 5.6 2.9 4-2.1.4.1 1.9 2.6 1.1 1.1 3.8-3.8h2.8v1.6l-1.8 1.4v1.3l-2.1-.5-.4.9 1.2 1.4-2.5 4.4 3 4.5 3.1-.7 1.8-2.7.9.7.2-.5-1.3-3.3h1.3l.5 1.3h.5l.6-2.1 1.9-1.1.6-4.1 1.2-.4-.7-1.3 1.4-1.9-.7-2.5-.5-1.1h-.7l-.6-3.7-1.1.5-1.1-.1 1-2.2h1.7l-1.9-5.9 1.7-3.5-2 1.3-.7.8-1.5-6-2 .1-3.4-4.7 1.5-.9v-.5l-5.2-.5 1.2-3.9-2-1.4.4-.4 3.5-1.9v-1.4h-1.4v.5h-4.1l-2.7 2.2-1.4-2.7-1.4-.8 1.6-2.4 1.7.2v-2l5.2-1.4-.1-1.5-.3.1-1.3 1.3-1.5-3.4h-.9v.7l-2.4.7-.1-.8 1.8-2.3-1.3-.1-.5 1.8-.6-.1-1.3-2.1.1-2.5.5-1.4.8-.9 1.6-.5 2.7 1.9.6 2 3.6-.7.4-.9-1.3-.6 1.5-1.1-.1-1.2-1.3-.2 1.6-1.8 3.6 1.3.1-.4-.7-.5-.5-2.4-2.4-.7-2.7 2.6-1.8-.6-.1 1.2-2.2.6v-.6H289l-3.8 2.6-.7 1.9h-1.7l-.5-3.3-7.2-8.4.7-.8-.5-1.5h-.7l-1.2.6-1.4-2-3.2-3.4-.7-1-1.8.6-3.8-2.2-2.2-1.3-3.8-3.1-4-1.4-1.8-1.2-2.5-.7-7.6 2-1.1 1.2-2.8 1.4-2 3.8-.4 5 1.2 4.9.5.7 2.1 1.4 1.3 2.6 3.1 2.6.8 1.9-2 6.5 2.6 5.2.6.6 2.8 5.8 2.9 3.8 1.6 1.4 3.1 2 3.1 3.3z" id="martinique"/><path class="st1" d="M49 82.9V86c.4.4 1.1 1.2 1.1 1.2l2.6-1.4 2.3-1.9.8.9.7-.8 4.8-1.1.4-1.1 1.5-1.8 4.4-4.9 2.1-3.5v-7.3l-1-1.8-.1-2 .7-1.4-.6-.3-1.2-1.3.4-1.3-1.6-3.2.5-1.5h-1l-.1-2 .9-1-.1-5.3 3.5-.7 1.5.6.2-3.1 1 .9 2.4 4.8h2.2l1.2 1.8 3.8.7 2.1.7 2.2-2 2.5-.5 7.1-1.8.7-1.9 15.8-3 8.5 1.2 2.9 1.2.4-.6-1.4-1-3.2-.4-6.6-3.2-1.5-4.9-1.1-1.1-6.9-2.4-8.3-1.7-2.3-3.6-1.2-4.8 1.4-3.7-1.8-7.5-4.9-3.6-.4-1.3-2.4-.7V.1l-.9.3-1.7 2.4L77.2 6l-3.4 3.6-.6 2.2.6.5 1.7 6.8 4.1 1.8L79 24l.4.4.1.5-1.7 1.1h-1.7l-1.7 1.7v2.9l-1.7 1.9v.5l.5.7-1.7 2.6-.9.7-.9-1.5.6-.1.1-.4-2.1-.4-1.5 3-1.4.6-.8-2.4h-.4l-.2 1.7h-1.6v-1.2h-1.8l.8-1.6.7-.9.6.8h.5l.9-2.6-2 .6-3-1.3v-1.7H55l-1.1-1.4h-1.2l-4.1-1.9L48 25l-3.1-2.1v.5l-1.3.1-3.3 1v1.1L39 27v1.2l-1.7 2-.2.5.7-.3.1 1.5-1.1 1.3-.5 4.6.5 3.1 1.8 2.3 1.2 2.6-.6 2.4.5 1.6v.5l-.5 1.2 1.1.1v5.6l.7.6-.1 3.2.5 4.4-.5 4.8 2.8 3.7v2.9l1.1.7 2.3 2.4 1.9 3z" id="guadeloupe"/></svg>